# AST/ASF file generated using VICON BodyLanguage
# -----------------------------------------------
:version 1.10
:name VICON
:units
  mass 1.0
  length 0.45
  angle deg
:documentation
   .ast/.asf automatically generated from VICON data using
   VICON BodyBuilder and BodyLanguage model FoxedUp or BRILLIANT.MOD
:root
   order TX TY TZ RX RY RZ
   axis XYZ
   position 0 0 0  
   orientation 0 0 0 
:bonedata
  begin
     id 1 
     name lhipjoint
     direction 0.643824 -0.71708 0.266994 
     length 2.52133 
     axis 0 0 0  XYZ
  end
  begin
     id 2 
     name lfemur
     direction 0.34202 -0.939693 0  
     length 7.51824  
     axis 0 0 20  XYZ
    dof rx ry rz
    limits (-160.0 20.0)
           (-70.0 70.0)
           (-60.0 70.0)
  end
  begin
     id 3 
     name ltibia
     direction 0.34202 -0.939693 0   
     length 7.3685   
     axis 0 0 20   XYZ
    dof rx
    limits (-10.0 170.0)
  end
  begin
     id 4 
     name lfoot
     direction 0.105419 -0.289636 0.951314   
     length 2.20972   
     axis -90 7.62852e-016 20   XYZ
    dof rx rz
    limits (-45.0 90.0)
           (-70.0 20.0)
  end
  begin
     id 5 
     name ltoes
     direction 1.53549e-011 -4.21833e-011 1   
     length 1.10139   
     axis -90 7.62852e-016 20   XYZ
    dof rx
    limits (-90.0 20.0)
  end
  begin
     id 6 
     name rhipjoint
     direction -0.608823 -0.743445 0.276811   
     length 2.43192  
     axis 0 0 0  XYZ 
  end
  begin
     id 7 
     name rfemur
     direction -0.34202 -0.939693 0   
     length 7.69715   
     axis 0 0 -20   XYZ
    dof rx ry rz
    limits (-160.0 20.0)
           (-70.0 70.0)
           (-70.0 60.0)
  end
  begin
     id 8 
     name rtibia
     direction -0.34202 -0.939693 0   
     length 7.44924   
     axis 0 0 -20   XYZ
    dof rx
    limits (-10.0 170.0)
 end
 begin
     id 9 
     name rfoot
     direction -0.103614 -0.284677 0.953007   
     length 2.22623  
     axis -90 -7.62852e-016 -20   XYZ
    dof rx rz
    limits (-45.0 90.0)
           (-20.0 70.0)
  end
  begin
     id 10 
     name rtoes
     direction -1.53537e-011 -4.22026e-011 1   
     length 1.11   
     axis -90 -7.62852e-016 -20   XYZ
    dof rx
    limits (-90.0 20.0)
  end
  begin
     id 11 
     name lowerback
     direction -0.0101212 0.99662 -0.0815298   
     length 2.08277   
     axis 0 0 0   XYZ
    dof rx ry rz
    limits (-20.0 45.0)
           (-30.0 30.0)
           (-30.0 30.0)
  end
  begin
     id 12 
     name upperback
     direction 0.024314 0.999591 -0.0150645   
     length 2.08524   
     axis 0 0 0   XYZ
    dof rx ry rz
    limits (-20.0 45.0)
           (-30.0 30.0)
           (-30.0 30.0)
  end
  begin
     id 13 
     name thorax
     direction 0.0285959 0.999323 0.0231357   
     length 2.09645   
     axis 0 0 0   XYZ
    dof rx ry rz
    limits (-20.0 45.0)
           (-30.0 30.0)
           (-30.0 30.0)
  end
  begin
     id 14 
     name lowerneck
     direction -0.065512 0.979301 0.191515   
     length 1.63798   
     axis 0 0 0   XYZ
    dof rx ry rz
    limits (-20.0 45.0)
           (-30.0 30.0)
           (-30.0 30.0)
  end
  begin
     id 15 
     name upperneck
     direction 0.0498479 0.98191 -0.182667   
     length 1.68731   
     axis 0 0 0   XYZ
    dof rx ry rz
    limits (-20.0 45.0)
           (-30.0 30.0)
           (-30.0 30.0)
  end
  begin
     id 16
     name head
     direction 0.0230358 0.996257 -0.0833175  
     length 1.69785  
     axis 0 0 0   XYZ
    dof rx ry rz
    limits (-20.0 45.0)
           (-30.0 30.0)
           (-30.0 30.0)
  end
  begin
     id 17 
     name lclavicle
     direction 0.967963 0.201165 -0.150269  
     length 3.63976  
     axis 0 0 0   XYZ
    dof ry rz
    limits (-20.0 10.0)
           (0.0 20.0)
  end
  begin
     id 18 
     name lhumerus
     direction 1 -4.48954e-011 -2.92837e-028   
     length 5.32462   
     axis 180 -30 -90   XYZ
    dof rx ry rz
    limits (-60.0 90.0)
           (-90.0 90.0)
           (-90.0 90.0)
  end
  begin
     id 19
     name lradius
     direction 1 -4.48958e-011 -6.39511e-027   
     length 3.48402   
     axis 180 -30 -90   XYZ
    dof rx
    limits (-10.0 170.0)
  end
  begin
     id 20
     name lwrist
     direction 1 -4.48975e-011 -1.1413e-026   
     length 1.74201   
     axis 6.88575e-015 90 90   XYZ
    dof ry
    limits (-180.0 0.0)
 end
  begin
     id 21 
     name lhand
     direction 1 -4.48899e-011 -2.28192e-026   
     length 0.572476   
     axis 1.45643e-014 90 90   XYZ
    dof rx rz
    limits (-90.0 90.0)
           (-45.0 45.0)
  end
  begin
     id 22 
     name lfingers
     direction 1 -4.49155e-011 -4.5684e-026   
     length 0.461545   
     axis 2.91283e-014 90 90   XYZ
    dof rx
    limits (0.0 90.0)
  end
  begin
     id 23
     name lthumb
     direction 0.707107 -6.34943e-011 0.707107   
     length 0.662688   
     axis -90 45 -2.25915e-014   XYZ
    dof rx rz
    limits (-45.0 45.0)
           (-45.0 45.0)
  end
  begin
     id 24 
     name rclavicle
     direction -0.964103 0.264019 -0.0282629   
     length 3.54491  
     axis 0 0 0   XYZ 
    dof ry rz
    limits (-10.0 20.0)
           (-20.0 0.0)
  end
  begin
     id 25 
     name rhumerus
     direction -1 -4.48964e-011 -2.45032e-027  
     length 5.33589   
     axis 180 30 90   XYZ
    dof rx ry rz
    limits (-90.0 60.0)
           (-90.0 90.0)
           (-90.0 90.0)
  end
  begin
     id 26 
     name rradius
     direction -1 -4.48987e-011 -1.55093e-027   
     length 3.64134   
     axis 180 30 90   XYZ
    dof rx
    limits (-10.0 170.0)
  end
  begin
     id 27 
     name rwrist
     direction -1 -4.4897e-011 -1.14128e-026   
     length 1.82067   
     axis 6.88575e-015 -90 -90   XYZ
    dof ry
    limits (-180.0 0.0)
  end
  begin
     id 28
     name rhand
     direction -1 -4.49021e-011 -2.28301e-026   
     length 0.734811   
     axis 1.45643e-014 -90 -90   XYZ
    dof rx rz
    limits (-90.0 90.0)
           (-45.0 45.0)
  end
  begin
     id 29
     name rfingers
     direction -1 -4.48862e-011 -4.56319e-026   
     length 0.592424   
     axis 2.91283e-014 -90 -90   XYZ
    dof rx
    limits (0.0 90.0)
  end
  begin
     id 30
     name rthumb
     direction -0.707107 -6.34978e-011 0.707107   
     length 0.850605   
     axis -90 -45 2.25915e-014   XYZ
    dof rx rz
    limits (-45.0 45.0)
           (-45.0 45.0)
  end
:hierarchy
  begin
    root lhipjoint rhipjoint lowerback
    lhipjoint lfemur
    lfemur ltibia
    ltibia lfoot
    lfoot ltoes
    rhipjoint rfemur
    rfemur rtibia
    rtibia rfoot
    rfoot rtoes
    lowerback upperback
    upperback thorax
    thorax lowerneck lclavicle rclavicle
    lowerneck upperneck
    upperneck head
    lclavicle lhumerus
    lhumerus lradius
    lradius lwrist
    lwrist lhand lthumb
    lhand lfingers
    rclavicle rhumerus
    rhumerus rradius
    rradius rwrist
    rwrist rhand rthumb
    rhand rfingers
  end

#!OML:ASF F:\VICON\USERDATA\INSTALL\rory3\rory3.ASF
:FULLY-SPECIFIED
:DEGREES
1
root 6.71921 17.8309 2.00658 -4.64982 -68.4464 12.0279
lowerback 0.337179 -0.353376 -2.15744
upperback -0.129935 -0.48227 2.13755
thorax -0.286147 -0.238395 3.40861
lowerneck -21.8242 1.56503 -8.1307
upperneck 25.7664 4.22402 2.53738
head 11.8579 1.34794 2.9831
rclavicle 1.77912e-014 1.74931e-014
rhumerus -38.7039 -8.06647 -70.3552
rradius 39.0074
rwrist 14.229
rhand -16.6154 3.10061
rfingers 7.12502
rthumb 9.60645 -26.6604
lclavicle 1.77912e-014 1.74931e-014
lhumerus -31.9851 6.60478 85.7589
lradius 30.8532
lwrist -7.57888
lhand -11.5501 21.849
lfingers 7.12502
lthumb 14.4905 51.323
rfemur -14.6901 -1.26869 21.1464
rtibia 33.46
rfoot -23.1063 -3.49199
rtoes 13.3215
lfemur -12.9378 0.530686 -23.4853
ltibia 29.9516
lfoot -13.675 4.5635
ltoes -13.1255
2
root 6.71615 17.8276 1.99872 -4.79461 -68.3905 12.1472
lowerback 0.411239 -0.388023 -2.2779
upperback -0.150127 -0.53004 2.18312
thorax -0.343311 -0.260924 3.52473
lowerneck -21.7696 1.59171 -8.23207
upperneck 25.7486 4.29717 2.51811
head 11.8344 1.36851 3.0019
rclavicle 1.59028e-015 -2.06736e-014
rhumerus -38.6996 -7.72089 -70.3845
rradius 38.8891
rwrist 14.0769
rhand -16.9019 3.148
rfingers 7.12502
rthumb 9.33 -26.6255
lclavicle 1.59028e-015 -2.06736e-014
lhumerus -32.0333 6.74796 85.7885
lradius 30.8892
lwrist -7.44321
lhand -11.5868 21.8119
lfingers 7.12502
lthumb 14.4552 51.2885
rfemur -14.6383 -1.18731 21.1332
rtibia 33.4361
rfoot -23.0884 -3.72816
rtoes 12.7316
lfemur -12.8953 0.637345 -23.5185
ltibia 29.9479
lfoot -13.6366 4.4781
ltoes -13.3156
3
root 6.71327 17.826 1.98984 -4.8423 -68.3311 12.192
lowerback 0.465654 -0.405147 -2.36922
upperback -0.184471 -0.554107 2.22855
thorax -0.405909 -0.271291 3.62416
lowerneck -21.7137 1.56547 -8.38618
upperneck 25.7542 4.30025 2.54407
head 11.8218 1.35753 3.03621
rclavicle 6.64935e-014 3.18055e-014
rhumerus -38.7664 -7.47159 -70.3872
rradius 38.8176
rwrist 13.9558
rhand -17.377 3.1933
rfingers 7.12502
rthumb 8.87155 -26.6002
lclavicle 6.64935e-014 3.18055e-014
lhumerus -32.1101 6.94079 85.7905
lradius 30.939
lwrist -7.48394
lhand -11.6782 21.7882
lfingers 7.12502
lthumb 14.3671 51.271
rfemur -14.6249 -1.18382 21.1581
rtibia 33.4142
rfoot -23.012 -3.97863
rtoes 11.81
lfemur -12.8679 0.643513 -23.5236
ltibia 29.8916
lfoot -13.5736 4.5173
ltoes -14.1487
4
root 6.71075 17.8259 1.98457 -4.83065 -68.2799 12.1911
lowerback 0.46098 -0.38166 -2.3468
upperback -0.199184 -0.522427 2.21283
thorax -0.421266 -0.254997 3.59505
lowerneck -21.6349 1.53234 -8.43644
upperneck 25.7203 4.2481 2.59056
head 11.794 1.3373 3.05108
rclavicle 2.42517e-014 3.18055e-015
rhumerus -38.8572 -7.49851 -70.3907
rradius 38.7513
rwrist 13.9052
rhand -17.5479 3.24449
rfingers 7.12502
rthumb 8.70659 -26.556
lclavicle 2.42517e-014 3.18055e-015
lhumerus -32.1162 7.08139 85.7591
lradius 30.9396
lwrist -7.57643
lhand -11.8235 21.7687
lfingers 7.12502
lthumb 14.2271 51.2615
rfemur -14.6167 -1.18607 21.1747
rtibia 33.3819
rfoot -22.9864 -4.10973
rtoes 10.9384
lfemur -12.8494 0.525553 -23.5142
ltibia 29.8295
lfoot -13.5567 4.6351
ltoes -14.4701
5
root 6.70825 17.8281 1.98027 -4.87485 -68.2777 12.2463
lowerback 0.454097 -0.350562 -2.30926
upperback -0.194622 -0.480393 2.1528
thorax -0.416869 -0.234065 3.51139
lowerneck -21.582 1.53801 -8.33541
upperneck 25.6562 4.22069 2.56893
head 11.7631 1.33544 3.01911
rclavicle 1.81888e-014 1.11319e-014
rhumerus -38.8967 -7.76636 -70.4049
rradius 38.6412
rwrist 14.1079
rhand -17.5661 3.38716
rfingers 7.12502
rthumb 8.6891 -26.414
lclavicle 1.81888e-014 1.11319e-014
lhumerus -32.0969 7.18309 85.6747
lradius 30.9559
lwrist -7.59478
lhand -11.7585 21.7436
lfingers 7.12502
lthumb 14.2897 51.2319
rfemur -14.5498 -0.973734 21.1178
rtibia 33.332
rfoot -23.0854 -3.82149
rtoes 12.7907
lfemur -12.8067 0.439778 -23.5194
ltibia 29.7621
lfoot -13.5722 4.72315
ltoes -14.0902
6
root 6.70594 17.8289 1.97437 -4.88891 -68.3049 12.3152
lowerback 0.42337 -0.335949 -2.33257
upperback -0.212548 -0.460323 2.12036
thorax -0.41967 -0.22357 3.49075
lowerneck -21.5965 1.56314 -8.21411
upperneck 25.6878 4.23005 2.51889
head 11.7815 1.34338 2.98313
rclavicle 7.63333e-014 1.59028e-015
rhumerus -38.9379 -7.94641 -70.3968
rradius 38.5742
rwrist 14.3509
rhand -17.6966 3.48989
rfingers 7.12502
rthumb 8.56312 -26.3165
lclavicle 7.63333e-014 1.59028e-015
lhumerus -32.0986 7.18128 85.6106
lradius 30.9879
lwrist -7.52987
lhand -11.6274 21.8106
lfingers 7.12502
lthumb 14.416 51.2899
rfemur -14.5277 -0.596837 21.0794
rtibia 33.2699
rfoot -23.2792 -3.62972
rtoes 14.8554
lfemur -12.8136 0.356477 -23.5254
ltibia 29.6951
lfoot -13.5582 4.8383
ltoes -13.9934
7
root 6.70577 17.8277 1.9694 -4.7084 -68.2865 12.2341
lowerback 0.364294 -0.356285 -2.27235
upperback -0.256636 -0.48606 2.10079
thorax -0.430396 -0.235869 3.43643
lowerneck -21.5407 1.58995 -8.16598
upperneck 25.6259 4.24203 2.5278
head 11.7462 1.35784 2.97728
rclavicle 3.27001e-014 7.95139e-015
rhumerus -39.0111 -7.91369 -70.431
rradius 38.5921
rwrist 14.3944
rhand -17.7908 3.48573
rfingers 7.12502
rthumb 8.47219 -26.3243
lclavicle 3.27001e-014 7.95139e-015
lhumerus -32.1047 7.1887 85.5123
lradius 30.9786
lwrist -7.55213
lhand -11.6314 21.8132
lfingers 7.12502
lthumb 14.4122 51.2928
rfemur -14.5896 -0.245237 21.1349
rtibia 33.2049
rfoot -23.5078 -3.78307
rtoes 15.587
lfemur -12.8965 0.238026 -23.4801
ltibia 29.636
lfoot -13.5541 4.91296
ltoes -14.0814
8
root 6.70692 17.8274 1.96313 -4.45077 -68.2244 12.0695
lowerback 0.301431 -0.374713 -2.17874
upperback -0.274012 -0.509323 2.09407
thorax -0.41202 -0.24792 3.37632
lowerneck -21.5045 1.56581 -8.19547
upperneck 25.4939 4.20676 2.55203
head 11.689 1.34883 2.9812
rclavicle 5.05907e-014 -7.95139e-015
rhumerus -39.0158 -7.90206 -70.4785
rradius 38.5578
rwrist 14.4323
rhand -17.886 3.46526
rfingers 7.12502
rthumb 8.38032 -26.3485
lclavicle 5.05907e-014 -7.95139e-015
lhumerus -32.0618 7.25858 85.449
lradius 30.9597
lwrist -7.59226
lhand -11.5385 21.7854
lfingers 7.12502
lthumb 14.5017 51.2586
rfemur -14.6678 -0.153089 21.2325
rtibia 33.1336
rfoot -23.5877 -4.00603
rtoes 15.3183
lfemur -12.9956 0.222088 -23.4058
ltibia 29.591
lfoot -13.5654 4.88999
ltoes -14.3725
9
root 6.70974 17.8267 1.95475 -4.28474 -68.1518 12.0215
lowerback 0.251882 -0.388702 -2.17228
upperback -0.29778 -0.527162 2.08562
thorax -0.407403 -0.256628 3.36375
lowerneck -21.5442 1.56276 -8.14392
upperneck 25.4658 4.20262 2.505
head 11.689 1.34702 2.95469
rclavicle -2.22639e-014 2.06736e-014
rhumerus -39.0101 -8.09189 -70.4757
rradius 38.5015
rwrist 14.642
rhand -17.6503 3.49197
rfingers 7.12502
rthumb 8.60779 -26.3126
lclavicle -2.22639e-014 2.06736e-014
lhumerus -32.0239 7.29314 85.4404
lradius 30.9573
lwrist -7.57198
lhand -11.6199 21.7764
lfingers 7.12502
lthumb 14.4232 51.2552
rfemur -14.7814 -0.213986 21.2869
rtibia 33.061
rfoot -23.5308 -4.14822
rtoes 14.7027
lfemur -13.1357 0.291612 -23.3739
ltibia 29.5526
lfoot -13.5457 4.83105
ltoes -14.7262
10
root 6.71232 17.8271 1.95242 -4.19797 -68.0752 11.9733
lowerback 0.247431 -0.423306 -2.13233
upperback -0.278766 -0.573146 2.06717
thorax -0.382536 -0.280373 3.32219
lowerneck -21.7236 1.59304 -7.97428
upperneck 25.5666 4.23501 2.40702
head 11.7676 1.3602 2.90221
rclavicle 7.7526e-015 1.59028e-015
rhumerus -38.982 -8.23875 -70.4886
rradius 38.4852
rwrist 14.7948
rhand -17.2536 3.58798
rfingers 7.12502
rthumb 8.9906 -26.2004
lclavicle 7.7526e-015 1.59028e-015
lhumerus -31.9393 7.30094 85.3932
lradius 30.9236
lwrist -7.52417
lhand -11.7714 21.7623
lfingers 7.12502
lthumb 14.2773 51.2515
rfemur -14.812 -0.258344 21.3037
rtibia 33.0105
rfoot -23.5366 -4.20813
rtoes 14.3996
lfemur -13.1781 0.155527 -23.3723
ltibia 29.5006
lfoot -13.5459 4.94648
ltoes -14.484
11
root 6.71299 17.8283 1.94809 -4.04171 -68.0998 11.9406
lowerback 0.147591 -0.444474 -2.13881
upperback -0.292224 -0.600125 2.07727
thorax -0.338198 -0.294406 3.33555
lowerneck -21.9053 1.64884 -7.87853
upperneck 25.6935 4.30849 2.38188
head 11.8504 1.39327 2.89622
rclavicle 2.16675e-014 -4.77083e-015
rhumerus -38.9293 -8.14453 -70.5558
rradius 38.4617
rwrist 14.7512
rhand -17.5071 3.53497
rfingers 7.12502
rthumb 8.746 -26.2638
lclavicle 2.16675e-014 -4.77083e-015
lhumerus -31.9057 7.4104 85.3073
lradius 30.9128
lwrist -7.58353
lhand -11.7718 21.7413
lfingers 7.12502
lthumb 14.2769 51.2305
rfemur -14.9487 -0.256573 21.3573
rtibia 32.9662
rfoot -23.4774 -4.37875
rtoes 13.5164
lfemur -13.2868 0.187639 -23.3659
ltibia 29.4437
lfoot -13.5551 5.01104
ltoes -14.4403
12
root 6.71515 17.8249 1.94291 -4.24395 -68.1062 12.1962
lowerback 0.177044 -0.441711 -2.23898
upperback -0.307006 -0.596862 2.05539
thorax -0.369354 -0.291695 3.36988
lowerneck -21.9926 1.66333 -7.92861
upperneck 25.7862 4.32876 2.47871
head 11.8977 1.40654 2.94867
rclavicle -4.19436e-014 1.59028e-014
rhumerus -38.9211 -8.08148 -70.5935
rradius 38.4328
rwrist 14.7164
rhand -17.8434 3.43756
rfingers 7.12502
rthumb 8.42142 -26.3745
lclavicle -4.19436e-014 1.59028e-014
lhumerus -31.9363 7.39951 85.284
lradius 30.9461
lwrist -7.62897
lhand -11.7782 21.7446
lfingers 7.12502
lthumb 14.2707 51.2342
rfemur -14.9753 -0.21466 21.2899
rtibia 32.918
rfoot -23.4301 -4.57202
rtoes 13.0072
lfemur -13.3051 0.347369 -23.4793
ltibia 29.4039
lfoot -13.5959 4.96466
ltoes -14.9348
13
root 6.71805 17.8245 1.93844 -4.28945 -68.0693 12.2839
lowerback 0.219046 -0.421247 -2.2732
upperback -0.326386 -0.570154 2.05244
thorax -0.414502 -0.277217 3.38655
lowerneck -22.0049 1.62951 -7.99779
upperneck 25.8121 4.29125 2.53242
head 11.9093 1.38912 2.97549
rclavicle -7.05686e-015 -4.77083e-015
rhumerus -38.9884 -8.10995 -70.5508
rradius 38.4976
rwrist 14.7138
rhand -17.7763 3.42606
rfingers 7.12502
rthumb 8.4862 -26.3834
lclavicle -7.05686e-015 -4.77083e-015
lhumerus -31.928 7.17963 85.3675
lradius 30.9297
lwrist -7.53104
lhand -11.7857 21.9258
lfingers 7.12502
lthumb 14.2635 51.4159
rfemur -14.9834 -0.0511529 21.2571
rtibia 32.8603
rfoot -23.5614 -4.65023
rtoes 13.4838
lfemur -13.3491 0.455457 -23.5187
ltibia 29.3928
lfoot -13.6084 4.89678
ltoes -15.3318
14
root 6.71988 17.825 1.93293 -4.09339 -68.0893 12.1598
lowerback 0.192826 -0.394038 -2.28576
upperback -0.350488 -0.53372 2.11843
thorax -0.426573 -0.258556 3.46159
lowerneck -21.9688 1.5892 -8.12189
upperneck 25.7409 4.27225 2.53916
head 11.8734 1.37245 2.99255
rclavicle -6.24184e-014 -1.59028e-015
rhumerus -39.0385 -8.03065 -70.4957
rradius 38.5727
rwrist 14.5934
rhand -17.4688 3.50044
rfingers 7.12502
rthumb 8.78293 -26.2968
lclavicle -6.24184e-014 -1.59028e-015
lhumerus -31.9418 7.03094 85.4971
lradius 30.9333
lwrist -7.40973
lhand -11.7573 21.9661
lfingers 7.12502
lthumb 14.2909 51.4544
rfemur -15.0652 -0.0836971 21.3396
rtibia 32.8002
rfoot -23.5901 -4.7173
rtoes 13.187
lfemur -13.4444 0.392683 -23.4523
ltibia 29.4011
lfoot -13.6693 4.96014
ltoes -14.796
